<?xml version="1.0" encoding="UTF-8"?><svg id="Layer_1" xmlns="http://www.w3.org/2000/svg" viewBox="0 0 544.44 97.48"><defs><style>.cls-1{fill:#ba0c2f;}.cls-2{fill:#666;}</style></defs><g><path class="cls-1" d="M16.19,21.83l5.19-5.19h16.81l5.19,5.19V56.4l-5.19,5.19H21.38l-5.19-5.19V21.83h0Zm40.29-5.64L43.66,3.39H15.89L3,16.29V61.95l12.89,12.9h27.77l12.83-12.76V16.18h0Z"/><path class="cls-2" d="M1.32,62.7V15.27L15.28,1.33h29.18s13.73,13.76,13.73,13.76l.04,47.7-13.87,13.87H15.28S1.32,62.7,1.32,62.7h0ZM14.69,0L0,14.68V63.3l14.59,14.77h30.38l14.68-14.7V14.68L45.06,0H14.69Z"/><path class="cls-2" d="M22.9,19.96h13.79l3.29,3.29v31.8l-3.17,3.17h-14.04l-3.12-3.12V23.21l3.24-3.24h0Zm18.41,2.79l-4.12-4.12h-14.86l-4.06,4.06V55.57l3.97,3.97h15.13l3.94-3.94V22.75h0Z"/></g><g><polygon class="cls-2" points="79.35 42.13 79.35 43.49 544.44 43.49 544.44 42.13 79.35 42.13 79.35 42.13"/><g><path class="cls-2" d="M97.78,10.09l-.44-3.02h-5.53V26.6l2.95,.44v1.86h-10.48v-1.86l2.95-.44V7.07h-5.53l-.44,3.02h-1.96V4.52h20.44v5.56h-1.96Z"/><path class="cls-2" d="M112.95,28.89v-1.75l2.73-.44v-6.66h-7.27v6.66l2.73,.44v1.75h-9.93v-1.75l2.84-.44V11.98l-2.84-.44v-1.75h9.93v1.75l-2.73,.44v5.75h7.27v-5.75l-2.73-.44v-1.75h9.93v1.75l-2.84,.44v14.73l2.84,.44v1.75h-9.93Z"/><path class="cls-2" d="M141.47,28.89h-16.48v-1.75l2.84-.44V11.98l-2.84-.44v-1.75h16.48v5.06h-1.85l-.44-2.73h-6.98v5.67h4.36l.44-2.44h1.64v7.06h-1.64l-.44-2.44h-4.36v6.58h6.98l.44-2.73h1.85v5.06Z"/><path class="cls-2" d="M164.64,29.33c-7.57,0-10.88-4.51-10.88-12.69s3.35-12.55,10.91-12.55,10.88,4.51,10.88,12.7-3.35,12.55-10.91,12.55Zm.04-22.59c-4.04,0-6.11,3.24-6.11,9.93s2,10,6.04,10,6.11-3.24,6.11-9.93-2-10-6.04-10Z"/><path class="cls-2" d="M189.26,28.89v-1.75l2.73-.44v-6.66h-7.27v6.66l2.73,.44v1.75h-9.93v-1.75l2.84-.44V11.98l-2.84-.44v-1.75h9.93v1.75l-2.73,.44v5.75h7.27v-5.75l-2.73-.44v-1.75h9.93v1.75l-2.84,.44v14.73l2.84,.44v1.75h-9.93Z"/><path class="cls-2" d="M201.55,28.89v-1.75l2.84-.44V11.98l-2.84-.44v-1.75h10.04v1.75l-2.84,.44v14.73l2.84,.44v1.75h-10.04Z"/><path class="cls-2" d="M222.36,29.25c-6.44,0-9.24-3.6-9.24-9.93s2.84-9.86,9.27-9.86,9.24,3.6,9.24,9.93-2.84,9.86-9.28,9.86Zm.04-17.28c-3.06,0-4.69,2.22-4.69,7.35s1.56,7.42,4.62,7.42,4.73-2.22,4.73-7.35-1.6-7.42-4.66-7.42Z"/><path class="cls-2" d="M251.53,29.33c-4.22,0-7.6-1.45-7.6-1.45v-5.2h2.07l.47,3.35s1.56,.54,4.33,.54,5.38-.95,5.38-4.04c0-2.8-1.97-3.2-4.37-4-3.82-1.27-7.86-2.37-7.86-7.6,0-4.26,2.66-6.84,8.22-6.84,2.54,0,5.2,.58,7.28,1.38v4.87h-2.07l-.47-3.13s-2.19-.47-4.29-.47-4.29,.73-4.29,3.53c0,6.07,12.22,2.07,12.22,11.79,0,4.58-2.98,7.27-9.02,7.27Z"/><path class="cls-2" d="M277.79,15.07l-.44-2.95h-4.22v14.59l2.84,.44v1.75h-10.04v-1.75l2.84-.44V12.12h-4.22l-.44,2.95h-1.86v-5.27h17.39v5.27h-1.85Z"/><path class="cls-2" d="M291.32,28.89v-1.75l2.73-.44-1.35-3.45h-7.28l-1.35,3.45,2.73,.44v1.75h-8.33v-1.75l2.73-.44,6.55-16.91h4.18l6.55,16.91,2.73,.44v1.75h-9.89Zm-2.26-15.42l-2.77,7.57h5.53l-2.77-7.57Z"/><path class="cls-2" d="M315.58,15.07l-.44-2.95h-4.22v14.59l2.84,.44v1.75h-10.04v-1.75l2.84-.44V12.12h-4.22l-.44,2.95h-1.86v-5.27h17.39v5.27h-1.85Z"/><path class="cls-2" d="M335.59,28.89h-16.48v-1.75l2.84-.44V11.98l-2.84-.44v-1.75h16.48v5.06h-1.86l-.44-2.73h-6.98v5.67h4.37l.44-2.44h1.64v7.06h-1.64l-.44-2.44h-4.37v6.58h6.98l.44-2.73h1.86v5.06Z"/><path class="cls-2" d="M368.8,6.81v12.44c0,4.18-.26,6-2.22,7.97-1.42,1.42-3.75,2.11-7.2,2.11s-5.96-.95-7.57-2.55c-2.07-2.07-1.86-5.17-1.86-7.86V6.81l-2.95-.44v-1.85h10.47v1.85l-2.95,.44v14.26c0,4,2.22,5.6,5.64,5.6,1.82,0,3.31-.36,4.29-1.42,.87-.91,1.35-2.33,1.35-4.18V6.81l-2.95-.44v-1.85h8.87v1.85l-2.95,.44Z"/><path class="cls-2" d="M391.75,11.98V28.89h-3.42l-9.71-13.64v11.46l2.84,.44v1.75h-8.55v-1.75l2.84-.44V11.98l-2.84-.44v-1.75h6.66l9.31,13.02V11.98l-2.84-.44v-1.75h8.55v1.75l-2.84,.44Z"/><path class="cls-2" d="M396.84,28.89v-1.75l2.84-.44V11.98l-2.84-.44v-1.75h10.04v1.75l-2.84,.44v14.73l2.84,.44v1.75h-10.04Z"/><path class="cls-2" d="M428.19,11.98l-6.37,16.91h-4.22l-6.36-16.91-2.73-.44v-1.75h9.89v1.75l-2.73,.44,4.84,13.1,4.8-13.1-2.73-.44v-1.75h8.33v1.75l-2.73,.44Z"/><path class="cls-2" d="M448.89,28.89h-16.48v-1.75l2.84-.44V11.98l-2.84-.44v-1.75h16.48v5.06h-1.86l-.44-2.73h-6.99v5.67h4.37l.44-2.44h1.64v7.06h-1.64l-.44-2.44h-4.37v6.58h6.99l.44-2.73h1.86v5.06Z"/><path class="cls-2" d="M465.62,28.89l-1.78-4.37c-1.2-2.91-1.93-4.26-4.47-4.26h-.33v6.44l2.73,.44v1.75h-9.93v-1.75l2.84-.44V11.98l-2.84-.44v-1.75h9.64c1.96,0,4.26,.11,5.75,1.49,.98,.91,1.53,2.15,1.53,3.56,0,2.22-1.46,4.22-3.46,4.84,1.6,1.2,2.98,5.13,3.79,7.02l2.73,.44v1.75h-6.19Zm-2.04-16.19c-.73-.76-2.29-.69-3.28-.69h-1.27v6.11h.76c1.24,0,2.95,.15,3.86-.87,.58-.65,.73-1.42,.73-2.25s-.18-1.64-.8-2.29Z"/><path class="cls-2" d="M480.43,29.25c-3.56,0-6.55-1.2-6.55-1.2v-4.95h1.96l.47,3.13s1.38,.4,3.53,.4c2.33,0,4.11-.76,4.11-2.84,0-1.45-.8-1.96-2-2.36-3.53-1.2-8.04-1.71-8.04-6.48,0-3.42,2.36-5.49,7.06-5.49,2.14,0,4.36,.44,6.29,1.13v4.73h-1.96l-.47-2.98s-1.6-.36-3.38-.36-3.35,.62-3.35,2.47c0,4.26,10.08,1.42,10.08,8.98,0,3.71-2.69,5.82-7.75,5.82Z"/><path class="cls-2" d="M490.72,28.89v-1.75l2.84-.44V11.98l-2.84-.44v-1.75h10.04v1.75l-2.84,.44v14.73l2.84,.44v1.75h-10.04Z"/><path class="cls-2" d="M518.36,15.07l-.44-2.95h-4.22v14.59l2.84,.44v1.75h-10.04v-1.75l2.84-.44V12.12h-4.22l-.44,2.95h-1.85v-5.27h17.39v5.27h-1.86Z"/><path class="cls-2" d="M540.3,11.98l-5.57,8.62v6.11l2.84,.44v1.75h-10.04v-1.75l2.84-.44v-6.11l-5.64-8.62-2.73-.44v-1.75h10.11v1.75l-2.73,.44,3.93,6.18,3.89-6.18-2.62-.44v-1.75h8.44v1.75l-2.73,.44Z"/></g></g><g><path class="cls-2" d="M84.58,64.2c0-4.92,3.65-8.28,8.21-8.28,3.14,0,5.11,1.51,6.36,3.38l-2.04,1.08c-.84-1.34-2.42-2.33-4.32-2.33-3.24,0-5.74,2.54-5.74,6.14s2.5,6.14,5.74,6.14c1.9,0,3.48-.98,4.32-2.33l2.04,1.08c-1.27,1.87-3.22,3.38-6.36,3.38-4.56,0-8.21-3.36-8.21-8.28Z"/><path class="cls-2" d="M108.34,55.92c4.78,0,8.06,3.53,8.06,8.28s-3.29,8.28-8.06,8.28-8.06-3.53-8.06-8.28,3.29-8.28,8.06-8.28Zm0,2.14c-3.43,0-5.59,2.62-5.59,6.14s2.16,6.14,5.59,6.14,5.59-2.64,5.59-6.14-2.21-6.14-5.59-6.14Z"/><path class="cls-2" d="M118.71,56.18h2.4v13.9h7.27v2.11h-9.67v-16.01Z"/><path class="cls-2" d="M130.42,56.18h2.4v13.9h7.27v2.11h-9.67v-16.01Z"/><path class="cls-2" d="M142.13,56.18h10.75v2.11h-8.35v4.68h8.18v2.11h-8.18v4.99h8.35v2.11h-10.75v-16.01Z"/><path class="cls-2" d="M162.91,55.92c3,0,4.99,1.37,6.34,3.17l-1.94,1.13c-.91-1.22-2.52-2.16-4.39-2.16-3.34,0-5.83,2.54-5.83,6.14s2.5,6.17,5.83,6.17c1.78,0,3.29-.86,4.06-1.58v-2.88h-5.14v-2.11h7.54v5.88c-1.54,1.7-3.74,2.83-6.46,2.83-4.58,0-8.3-3.31-8.3-8.31s3.72-8.28,8.3-8.28Z"/><path class="cls-2" d="M171.84,56.18h10.75v2.11h-8.35v4.68h8.18v2.11h-8.18v4.99h8.35v2.11h-10.75v-16.01Z"/><path class="cls-2" d="M197.98,55.92c4.78,0,8.06,3.53,8.06,8.28s-3.29,8.28-8.06,8.28-8.06-3.53-8.06-8.28,3.29-8.28,8.06-8.28Zm0,2.14c-3.43,0-5.59,2.62-5.59,6.14s2.16,6.14,5.59,6.14,5.59-2.64,5.59-6.14-2.21-6.14-5.59-6.14Z"/><path class="cls-2" d="M208.35,56.18h10.75v2.11h-8.35v4.68h8.18v2.11h-8.18v7.1h-2.4v-16.01Z"/><path class="cls-2" d="M226.68,56.18h10.75v2.11h-8.35v4.68h8.18v2.11h-8.18v7.1h-2.4v-16.01Z"/><path class="cls-2" d="M246.82,55.92c4.78,0,8.06,3.53,8.06,8.28s-3.29,8.28-8.06,8.28-8.06-3.53-8.06-8.28,3.29-8.28,8.06-8.28Zm0,2.14c-3.43,0-5.59,2.62-5.59,6.14s2.16,6.14,5.59,6.14,5.59-2.64,5.59-6.14-2.21-6.14-5.59-6.14Z"/><path class="cls-2" d="M264.58,55.92c4.78,0,8.06,3.53,8.06,8.28s-3.29,8.28-8.06,8.28-8.06-3.53-8.06-8.28,3.29-8.28,8.06-8.28Zm0,2.14c-3.43,0-5.59,2.62-5.59,6.14s2.16,6.14,5.59,6.14,5.59-2.64,5.59-6.14-2.21-6.14-5.59-6.14Z"/><path class="cls-2" d="M274.95,56.18h5.71c4.99,0,8.3,3.41,8.3,8.02s-3.31,7.99-8.3,7.99h-5.71v-16.01Zm5.71,13.9c3.7,0,5.83-2.64,5.83-5.88s-2.06-5.9-5.83-5.9h-3.31v11.78h3.31Z"/><path class="cls-2" d="M290.23,74.47c.77-.48,1.51-1.44,1.63-2.23-.05,0-.24,.05-.36,.05-.74,0-1.3-.58-1.3-1.37s.65-1.46,1.46-1.46c.89,0,1.68,.72,1.68,1.99,0,1.56-.89,3-2.11,3.86l-1.01-.84Z"/><path class="cls-2" d="M311.48,68.88h-7.85l-1.3,3.31h-2.64l6.36-16.01h3l6.36,16.01h-2.64l-1.3-3.31Zm-7.15-2.14h6.46l-3.24-8.47-3.22,8.47Z"/><path class="cls-2" d="M323.5,55.92c3,0,4.99,1.37,6.34,3.17l-1.94,1.13c-.91-1.22-2.52-2.16-4.39-2.16-3.34,0-5.83,2.54-5.83,6.14s2.5,6.17,5.83,6.17c1.78,0,3.29-.86,4.06-1.58v-2.88h-5.14v-2.11h7.54v5.88c-1.54,1.7-3.74,2.83-6.46,2.83-4.58,0-8.3-3.31-8.3-8.31s3.72-8.28,8.3-8.28Z"/><path class="cls-2" d="M337.83,66.02h-3v6.17h-2.4v-16.01h6.74c3.05,0,5.14,1.97,5.14,4.92s-1.94,4.42-3.98,4.68l4.1,6.41h-2.78l-3.82-6.17Zm1.03-7.73h-4.03v5.62h4.03c1.73,0,2.98-1.13,2.98-2.81s-1.25-2.81-2.98-2.81Z"/><path class="cls-2" d="M346.66,56.18h2.4v16.01h-2.4v-16.01Z"/><path class="cls-2" d="M351.36,64.2c0-4.92,3.65-8.28,8.21-8.28,3.14,0,5.11,1.51,6.36,3.38l-2.04,1.08c-.84-1.34-2.42-2.33-4.32-2.33-3.24,0-5.74,2.54-5.74,6.14s2.5,6.14,5.74,6.14c1.9,0,3.48-.98,4.32-2.33l2.04,1.08c-1.27,1.87-3.22,3.38-6.36,3.38-4.56,0-8.21-3.36-8.21-8.28Z"/><path class="cls-2" d="M367.73,56.18h2.42v9.67c0,2.74,1.51,4.49,4.32,4.49s4.3-1.75,4.3-4.49v-9.67h2.42v9.72c0,3.98-2.23,6.58-6.72,6.58s-6.74-2.62-6.74-6.55v-9.74Z"/><path class="cls-2" d="M384.17,56.18h2.4v13.9h7.27v2.11h-9.67v-16.01Z"/><path class="cls-2" d="M397.39,58.3h-4.97v-2.11h12.31v2.11h-4.94v13.9h-2.4v-13.9Z"/><path class="cls-2" d="M406.63,56.18h2.42v9.67c0,2.74,1.51,4.49,4.32,4.49s4.3-1.75,4.3-4.49v-9.67h2.42v9.72c0,3.98-2.23,6.58-6.72,6.58s-6.74-2.62-6.74-6.55v-9.74Z"/><path class="cls-2" d="M428.47,66.02h-3v6.17h-2.4v-16.01h6.74c3.05,0,5.14,1.97,5.14,4.92s-1.94,4.42-3.98,4.68l4.1,6.41h-2.78l-3.82-6.17Zm1.03-7.73h-4.03v5.62h4.03c1.73,0,2.98-1.13,2.98-2.81s-1.25-2.81-2.98-2.81Z"/><path class="cls-2" d="M447.43,68.88h-7.85l-1.3,3.31h-2.64l6.36-16.01h3l6.36,16.01h-2.64l-1.3-3.31Zm-7.15-2.14h6.46l-3.24-8.47-3.22,8.47Z"/><path class="cls-2" d="M452.69,56.18h2.4v13.9h7.27v2.11h-9.67v-16.01Z"/><path class="cls-2" d="M463.99,74.47c.77-.48,1.51-1.44,1.63-2.23-.05,0-.24,.05-.36,.05-.74,0-1.3-.58-1.3-1.37s.65-1.46,1.46-1.46c.89,0,1.68,.72,1.68,1.99,0,1.56-.89,3-2.11,3.86l-1.01-.84Z"/><path class="cls-2" d="M95.38,93.88h-7.85l-1.3,3.31h-2.64l6.36-16.01h3l6.36,16.01h-2.64l-1.3-3.31Zm-7.15-2.14h6.46l-3.24-8.47-3.22,8.47Z"/><path class="cls-2" d="M103.04,84.9v12.29h-2.4v-16.01h2.47l8.71,12v-12h2.4v16.01h-2.33l-8.86-12.29Z"/><path class="cls-2" d="M117.17,81.18h5.71c4.99,0,8.3,3.41,8.3,8.02s-3.31,7.99-8.3,7.99h-5.71v-16.01Zm5.71,13.9c3.7,0,5.83-2.64,5.83-5.88s-2.06-5.9-5.83-5.9h-3.31v11.79h3.31Z"/><path class="cls-2" d="M139.08,81.18h10.75v2.11h-8.35v4.68h8.18v2.11h-8.18v4.99h8.35v2.11h-10.75v-16.01Z"/><path class="cls-2" d="M154.63,84.9v12.29h-2.4v-16.01h2.47l8.71,12v-12h2.4v16.01h-2.33l-8.86-12.29Z"/><path class="cls-2" d="M167.11,81.18h2.74l5.11,13.39,5.14-13.39h2.74l-6.36,16.01h-3l-6.36-16.01Z"/><path class="cls-2" d="M184.15,81.18h2.4v16.01h-2.4v-16.01Z"/><path class="cls-2" d="M194.93,91.02h-3v6.17h-2.4v-16.01h6.74c3.05,0,5.14,1.97,5.14,4.92s-1.94,4.42-3.98,4.68l4.1,6.41h-2.78l-3.82-6.17Zm1.03-7.73h-4.03v5.62h4.03c1.73,0,2.98-1.13,2.98-2.81s-1.25-2.81-2.98-2.81Z"/><path class="cls-2" d="M211.15,80.92c4.78,0,8.06,3.53,8.06,8.28s-3.29,8.28-8.06,8.28-8.06-3.53-8.06-8.28,3.29-8.28,8.06-8.28Zm0,2.14c-3.43,0-5.59,2.62-5.59,6.14s2.16,6.14,5.59,6.14,5.59-2.64,5.59-6.14-2.21-6.14-5.59-6.14Z"/><path class="cls-2" d="M223.92,84.9v12.29h-2.4v-16.01h2.47l8.71,12v-12h2.4v16.01h-2.33l-8.86-12.29Z"/><path class="cls-2" d="M251.83,84.47l-5.18,12.72h-1.01l-5.18-12.72v12.72h-2.4v-16.01h3.43l4.66,11.5,4.66-11.5h3.43v16.01h-2.4v-12.72Z"/><path class="cls-2" d="M257.19,81.18h10.75v2.11h-8.35v4.68h8.18v2.11h-8.18v4.99h8.35v2.11h-10.75v-16.01Z"/><path class="cls-2" d="M272.74,84.9v12.29h-2.4v-16.01h2.47l8.71,12v-12h2.4v16.01h-2.33l-8.86-12.29Z"/><path class="cls-2" d="M290.79,83.3h-4.97v-2.11h12.31v2.11h-4.94v13.9h-2.4v-13.9Z"/><path class="cls-2" d="M308.57,93.88h-7.85l-1.3,3.31h-2.64l6.36-16.01h3l6.36,16.01h-2.64l-1.3-3.31Zm-7.15-2.14h6.46l-3.24-8.47-3.22,8.47Z"/><path class="cls-2" d="M313.82,81.18h2.4v13.9h7.27v2.11h-9.67v-16.01Z"/><path class="cls-2" d="M331.51,93.09c1.08,1.2,2.81,2.26,5.04,2.26,2.59,0,3.5-1.32,3.5-2.47,0-1.68-1.82-2.16-3.86-2.69-2.57-.67-5.54-1.42-5.54-4.68,0-2.64,2.33-4.56,5.67-4.56,2.47,0,4.42,.79,5.83,2.23l-1.39,1.78c-1.22-1.3-2.9-1.87-4.63-1.87s-3,.91-3,2.26c0,1.44,1.73,1.9,3.72,2.4,2.62,.7,5.66,1.51,5.66,4.92,0,2.5-1.73,4.82-6.05,4.82-2.86,0-4.94-1.03-6.31-2.54l1.37-1.85Z"/><path class="cls-2" d="M344.02,89.2c0-4.92,3.65-8.28,8.21-8.28,3.14,0,5.11,1.51,6.36,3.38l-2.04,1.08c-.84-1.34-2.42-2.33-4.32-2.33-3.24,0-5.74,2.54-5.74,6.14s2.5,6.14,5.74,6.14c1.9,0,3.48-.98,4.32-2.33l2.04,1.08c-1.27,1.87-3.22,3.38-6.36,3.38-4.56,0-8.21-3.36-8.21-8.28Z"/><path class="cls-2" d="M360.38,81.18h2.4v16.01h-2.4v-16.01Z"/><path class="cls-2" d="M365.76,81.18h10.75v2.11h-8.35v4.68h8.18v2.11h-8.18v4.99h8.35v2.11h-10.75v-16.01Z"/><path class="cls-2" d="M381.31,84.9v12.29h-2.4v-16.01h2.47l8.71,12v-12h2.4v16.01h-2.33l-8.86-12.29Z"/><path class="cls-2" d="M394.78,89.2c0-4.92,3.65-8.28,8.21-8.28,3.14,0,5.11,1.51,6.36,3.38l-2.04,1.08c-.84-1.34-2.42-2.33-4.32-2.33-3.24,0-5.74,2.54-5.74,6.14s2.5,6.14,5.74,6.14c1.9,0,3.48-.98,4.32-2.33l2.04,1.08c-1.27,1.87-3.22,3.38-6.36,3.38-4.56,0-8.21-3.36-8.21-8.28Z"/><path class="cls-2" d="M411.14,81.18h10.75v2.11h-8.35v4.68h8.18v2.11h-8.18v4.99h8.35v2.11h-10.75v-16.01Z"/><path class="cls-2" d="M424.68,93.09c1.08,1.2,2.81,2.26,5.04,2.26,2.59,0,3.5-1.32,3.5-2.47,0-1.68-1.82-2.16-3.86-2.69-2.57-.67-5.54-1.42-5.54-4.68,0-2.64,2.33-4.56,5.66-4.56,2.47,0,4.42,.79,5.83,2.23l-1.39,1.78c-1.22-1.3-2.9-1.87-4.63-1.87s-3,.91-3,2.26c0,1.44,1.73,1.9,3.72,2.4,2.62,.7,5.66,1.51,5.66,4.92,0,2.5-1.73,4.82-6.05,4.82-2.86,0-4.94-1.03-6.31-2.54l1.37-1.85Z"/></g></svg>